<svg id="Group_7992" data-name="Group 7992" xmlns="http://www.w3.org/2000/svg" xmlns:xlink="http://www.w3.org/1999/xlink" width="28.797" height="19.665" viewBox="0 0 28.797 19.665">
  <defs>
    <clipPath id="clip-path">
      <rect id="Rectangle_117" data-name="Rectangle 117" width="28.797" height="19.665" transform="translate(0 0)" fill="none" stroke="#000" stroke-width="0.5"/>
    </clipPath>
  </defs>
  <g id="Group_7991" data-name="Group 7991" transform="translate(0 0)" clip-path="url(#clip-path)">
    <path id="Path_23622" data-name="Path 23622" d="M2.43,0H26.367a2.435,2.435,0,0,1,2.43,2.43V17.232a2.435,2.435,0,0,1-2.43,2.43H2.43A2.435,2.435,0,0,1,0,17.232V2.427A2.435,2.435,0,0,1,2.43,0m.016,1.4C6.169,5.138,9.57,8.554,13.1,12.1a1.777,1.777,0,0,0,2.6,0L26.352,1.4Zm24.946.934-7.564,7.6L27.4,16.739V2.427ZM18.84,10.925l-2.155,2.166a3.167,3.167,0,0,1-4.57,0L9.976,10.941,1.963,18.148a1.021,1.021,0,0,0,.467.113H26.367a1.02,1.02,0,0,0,.49-.125ZM8.988,9.949,1.405,2.331l0,.1V16.773Z" transform="translate(0 0.003)" stroke="#000" stroke-width="0.5"/>
  </g>
</svg>
