<svg id="Group_7994" data-name="Group 7994" xmlns="http://www.w3.org/2000/svg" xmlns:xlink="http://www.w3.org/1999/xlink" width="11.904" height="24.721" viewBox="0 0 11.904 24.721">
  <defs>
    <clipPath id="clip-path">
      <rect id="Rectangle_118" data-name="Rectangle 118" width="11.904" height="24.721" fill="none"/>
    </clipPath>
  </defs>
  <g id="Group_7993" data-name="Group 7993" clip-path="url(#clip-path)">
    <path id="Path_23623" data-name="Path 23623" d="M0,7.111H2.586V5.788a8.8,8.8,0,0,1,.472-3.316A3.751,3.751,0,0,1,4.8.688,6.68,6.68,0,0,1,8.008,0a12.914,12.914,0,0,1,3.9.6l-.63,3.249a9.237,9.237,0,0,0-2.139-.266,1.91,1.91,0,0,0-1.45.474,2.727,2.727,0,0,0-.44,1.815V7.111h3.483v3.666H7.245V24.721H2.586V10.778H0Z" transform="translate(0 0)" fill="#231f20"/>
  </g>
</svg>
