<svg id="Group_7996" data-name="Group 7996" xmlns="http://www.w3.org/2000/svg" xmlns:xlink="http://www.w3.org/1999/xlink" width="24.606" height="24.721" viewBox="0 0 24.606 24.721">
  <defs>
    <clipPath id="clip-path">
      <rect id="Rectangle_119" data-name="Rectangle 119" width="24.606" height="24.721" fill="none"/>
    </clipPath>
  </defs>
  <g id="Group_7995" data-name="Group 7995" clip-path="url(#clip-path)">
    <path id="Path_23624" data-name="Path 23624" d="M24.274,9.478A12.274,12.274,0,0,0,12.294,0,12.507,12.507,0,0,0,9.933.242,12.276,12.276,0,0,0,1.567,18.15a.679.679,0,0,1,.053.553Q.831,21.576.048,24.443c-.085.314-.085.314.229.232,1.986-.521,3.969-1.036,5.953-1.564a.575.575,0,0,1,.444.05,12.266,12.266,0,0,0,17.6-13.684M14.012,22.339a8.776,8.776,0,0,1-1.405.138,10.33,10.33,0,0,1-5.537-1.469.74.74,0,0,0-.63-.094c-1.088.3-2.184.571-3.273.86-.229.069-.251.019-.193-.188.289-1.036.56-2.066.859-3.09a.847.847,0,0,0-.112-.766,10.035,10.035,0,0,1,.361-11.41A9.7,9.7,0,0,1,14.458,2.338a9.654,9.654,0,0,1,7.811,7.724,10.172,10.172,0,0,1-8.257,12.277" transform="translate(0)" fill="#231f20" fill-rule="evenodd"/>
    <path id="Path_23625" data-name="Path 23625" d="M119.1,129.974a4.181,4.181,0,0,1-1.275-.195,12.389,12.389,0,0,1-6.632-4.9,7.029,7.029,0,0,1-1.435-2.863,3.437,3.437,0,0,1,1.11-3.316,2.006,2.006,0,0,1,1.628-.226.633.633,0,0,1,.287.327c.356.848.708,1.683,1.057,2.531a.589.589,0,0,1-.036.484,3.849,3.849,0,0,1-.758,1.011.5.5,0,0,0-.068.7,8.4,8.4,0,0,0,4.173,3.586.5.5,0,0,0,.65-.157c.3-.37.617-.741.9-1.124a.5.5,0,0,1,.692-.182c.6.27,1.19.553,1.785.835.133.057.265.126.4.188.6.3.6.308.545.973a2.607,2.607,0,0,1-2.231,2.261,2.574,2.574,0,0,1-.791.063" transform="translate(-103.597 -111.811)" fill="#231f20" fill-rule="evenodd"/>
  </g>
</svg>
