<svg xmlns="http://www.w3.org/2000/svg" xmlns:xlink="http://www.w3.org/1999/xlink" width="124.424" height="124.423" viewBox="0 0 124.424 124.423">
  <defs>
    <clipPath id="clip-path">
      <rect id="Rectangle_81" data-name="Rectangle 81" width="21.803" height="15.989" fill="#fff" stroke="#fff" stroke-width="1"/>
    </clipPath>
  </defs>
  <g id="Group_8124" data-name="Group 8124" transform="translate(-185.076 -9475.001)">
    <g id="Group_7771" data-name="Group 7771" transform="translate(185.076 9475.001)">
      <g id="Group_20" data-name="Group 20">
        <g id="Path_13" data-name="Path 13" fill="none">
          <path d="M62.212,124.423h0A62.211,62.211,0,1,0,62.212,0h0a62.211,62.211,0,1,0,0,124.423Z" stroke="none"/>
          <path d="M 62.21193695068359 123.4225616455078 C 70.47593688964844 123.4225616455078 78.49221801757812 121.8042755126953 86.0380859375 118.612678527832 C 89.66493988037109 117.0786743164062 93.16310119628906 115.1799468994141 96.43541717529297 112.9692306518555 C 99.67691802978516 110.7793426513672 102.7251052856445 108.2643737792969 105.4953231811523 105.4941940307617 C 108.2655334472656 102.724006652832 110.780517578125 99.67584228515625 112.9704360961914 96.43439483642578 C 115.1811676025391 93.16209411621094 117.0799179077148 89.66396331787109 118.6139526367188 86.03716278076172 C 121.8055725097656 78.49137878417969 123.4238739013672 70.47519683837891 123.4238739013672 62.21127700805664 C 123.4238739013672 53.94736099243164 121.8055725097656 45.93117523193359 118.6139526367188 38.38539505004883 C 117.0799179077148 34.75859451293945 115.1811676025391 31.26045989990234 112.9704360961914 27.9881763458252 C 110.780517578125 24.7467098236084 108.2655334472656 21.69856071472168 105.4953231811523 18.92837715148926 C 102.7251052856445 16.15819358825684 99.67691802978516 13.64322662353516 96.43541717529297 11.45334339141846 C 93.16310119628906 9.242627143859863 89.66493988037109 7.343893527984619 86.0380859375 5.809876918792725 C 78.49221801757812 2.618293762207031 70.47593688964844 1.000010371208191 62.21193695068359 1.000010371208191 C 53.94793701171875 1.000010371208191 45.93167114257812 2.618293762207031 38.38578796386719 5.809876918792725 C 34.75895309448242 7.343893527984619 31.26078605651855 9.242627143859863 27.98845291137695 11.45334339141846 C 24.74697113037109 13.64322662353516 21.69877052307129 16.15819358825684 18.92855453491211 18.92837715148926 C 16.15835380554199 21.69856071472168 13.64335346221924 24.7467098236084 11.45345401763916 27.9881763458252 C 9.242703437805176 31.26045989990234 7.343953609466553 34.75859451293945 5.809937000274658 38.38539505004883 C 2.618303537368774 45.93117523193359 1.000003576278687 53.94736099243164 1.000003576278687 62.21127700805664 C 1.000003576278687 70.47519683837891 2.618303537368774 78.49137878417969 5.809937000274658 86.03716278076172 C 7.343953609466553 89.66396331787109 9.242703437805176 93.16209411621094 11.45345401763916 96.43439483642578 C 13.64335346221924 99.67584228515625 16.15835380554199 102.724006652832 18.92855453491211 105.4941940307617 C 21.69877052307129 108.2643737792969 24.74697113037109 110.7793426513672 27.98845291137695 112.9692306518555 C 31.26078605651855 115.1799468994141 34.75895309448242 117.0786743164062 38.38578796386719 118.612678527832 C 45.93167114257812 121.8042755126953 53.94793701171875 123.4225616455078 62.21193695068359 123.4225616455078 M 62.21193695068359 124.4225616455078 C 27.85323715209961 124.4225616455078 3.617350330387126e-06 96.56962585449219 3.617350330387126e-06 62.21127700805664 C 3.617350330387126e-06 27.85292625427246 27.85323715209961 1.034139040712034e-05 62.21193695068359 1.034139040712034e-05 C 96.57065582275391 1.034139040712034e-05 124.4238739013672 27.85292625427246 124.4238739013672 62.21127700805664 C 124.4238739013672 96.56962585449219 96.57065582275391 124.4225616455078 62.21193695068359 124.4225616455078 Z" stroke="none" fill="#fff"/>
        </g>
      </g>
    </g>
    <g id="Group_7773" data-name="Group 7773" transform="translate(235.95 9528.782)">
      <g id="Group_7702" data-name="Group 7702" clip-path="url(#clip-path)">
        <path id="Path_23074" data-name="Path 23074" d="M13.189.417h0a1.424,1.424,0,0,0,0,2.014l3.775,3.775H1.424a1.424,1.424,0,0,0,0,2.849H16.917l-3.775,3.775a1.424,1.424,0,0,0,0,2.014h0a1.424,1.424,0,0,0,2.014,0l6.231-6.231a1.424,1.424,0,0,0,0-2.014L15.2.417a1.424,1.424,0,0,0-2.014,0" transform="translate(0 0.727)" fill="#fff" stroke="#fff" stroke-width="1"/>
      </g>
    </g>
  </g>
</svg>
