<svg xmlns="http://www.w3.org/2000/svg" xmlns:xlink="http://www.w3.org/1999/xlink" width="85.6" height="85.6" viewBox="0 0 85.6 85.6">
  <defs>
    <clipPath id="clip-path">
      <rect id="Rectangle_81" data-name="Rectangle 81" width="15" height="11" fill="#d800e6"/>
    </clipPath>
  </defs>
  <g id="Group_8034" data-name="Group 8034" transform="translate(-1012 -7621)">
    <g id="Group_7722" data-name="Group 7722" transform="translate(2358.6 8418.6) rotate(180)">
      <g id="Group_20" data-name="Group 20" transform="translate(1261 712)">
        <g id="Path_13" data-name="Path 13" fill="none">
          <path d="M42.8,0h0a42.8,42.8,0,0,1,0,85.6h0A42.8,42.8,0,0,1,42.8,0Z" stroke="none"/>
          <path d="M 42.800048828125 1 C 37.15663528442383 1 31.68256759643555 2.105049133300781 26.52988433837891 4.284446716308594 C 21.55248260498047 6.38970947265625 17.08212280273438 9.403778076171875 13.24294281005859 13.24294281005859 C 9.403778076171875 17.08212280273438 6.38970947265625 21.55248260498047 4.284446716308594 26.52988433837891 C 2.105049133300781 31.68256759643555 1 37.15663528442383 1 42.800048828125 C 1 48.44346237182617 2.105049133300781 53.91753387451172 4.284446716308594 59.0702018737793 C 6.38970947265625 64.04759979248047 9.403778076171875 68.51797485351562 13.24294281005859 72.35714721679688 C 17.08212280273438 76.19630432128906 21.55248260498047 79.21038818359375 26.52988433837891 81.31565093994141 C 31.68256759643555 83.49504852294922 37.15663528442383 84.60009765625 42.800048828125 84.60009765625 C 48.44346237182617 84.60009765625 53.91753387451172 83.49504852294922 59.07021331787109 81.31565093994141 C 64.04761505126953 79.21038818359375 68.51797485351562 76.19630432128906 72.35715484619141 72.35714721679688 C 76.19631958007812 68.51797485351562 79.21038818359375 64.04759979248047 81.31565093994141 59.0702018737793 C 83.49504852294922 53.91753387451172 84.60009765625 48.44346237182617 84.60009765625 42.800048828125 C 84.60009765625 37.15663528442383 83.49504852294922 31.68256759643555 81.31565093994141 26.52988433837891 C 79.21038818359375 21.55248260498047 76.19631958007812 17.08212280273438 72.35715484619141 13.24294281005859 C 68.51797485351562 9.403778076171875 64.04761505126953 6.38970947265625 59.07021331787109 4.284446716308594 C 53.91753387451172 2.105049133300781 48.44346237182617 1 42.800048828125 1 M 42.800048828125 0 C 66.43787384033203 0 85.60009765625 19.16222381591797 85.60009765625 42.800048828125 C 85.60009765625 66.43785858154297 66.43787384033203 85.60009765625 42.800048828125 85.60009765625 C 19.16222381591797 85.60009765625 0 66.43785858154297 0 42.800048828125 C 0 19.16222381591797 19.16222381591797 0 42.800048828125 0 Z" stroke="none" fill="#999"/>
        </g>
      </g>
    </g>
    <g id="Group_7724" data-name="Group 7724" transform="translate(1047 7658)">
      <g id="Group_7702" data-name="Group 7702" transform="translate(0 0)" clip-path="url(#clip-path)">
        <path id="Path_23074" data-name="Path 23074" d="M5.927.287h0a.98.98,0,0,1,0,1.386l-2.6,2.6H14.02a.98.98,0,0,1,0,1.96H3.362l2.6,2.6a.98.98,0,0,1,0,1.386h0a.98.98,0,0,1-1.386,0L.287,5.926a.98.98,0,0,1,0-1.386L4.541.287a.98.98,0,0,1,1.386,0" transform="translate(0 0.5)" fill="#d800e6"/>
      </g>
    </g>
  </g>
</svg>
