<svg xmlns="http://www.w3.org/2000/svg" xmlns:xlink="http://www.w3.org/1999/xlink" width="85.6" height="85.6" viewBox="0 0 85.6 85.6">
  <defs>
    <clipPath id="clip-path">
      <rect id="Rectangle_81" data-name="Rectangle 81" width="15" height="11" fill="#d800e6"/>
    </clipPath>
  </defs>
  <g id="Group_8033" data-name="Group 8033" transform="translate(-1118 -7621)">
    <g id="Group_7723" data-name="Group 7723" transform="translate(1118 7621)">
      <g id="Group_20" data-name="Group 20">
        <g id="Path_13" data-name="Path 13" fill="none">
          <path d="M42.8,85.6h0A42.8,42.8,0,0,0,42.8,0h0a42.8,42.8,0,0,0,0,85.6Z" stroke="none"/>
          <path d="M 42.800048828125 84.60009765625 C 48.44346237182617 84.60009765625 53.91753005981445 83.49504852294922 59.07021331787109 81.31565093994141 C 64.04761505126953 79.21038818359375 68.51797485351562 76.19631958007812 72.35715484619141 72.35715484619141 C 76.19631958007812 68.51797485351562 79.21038818359375 64.04761505126953 81.31565093994141 59.07021331787109 C 83.49504852294922 53.91753005981445 84.60009765625 48.44346237182617 84.60009765625 42.800048828125 C 84.60009765625 37.15663528442383 83.49504852294922 31.68256568908691 81.31565093994141 26.5298957824707 C 79.21038818359375 21.5524959564209 76.19631958007812 17.08211898803711 72.35715484619141 13.24295425415039 C 68.51797485351562 9.403790473937988 64.04761505126953 6.389707565307617 59.07021331787109 4.284448623657227 C 53.91753005981445 2.105048894882202 48.44346237182617 1.000001788139343 42.800048828125 1.000001788139343 C 37.15663528442383 1.000001788139343 31.68256568908691 2.105048894882202 26.5298957824707 4.284448623657227 C 21.5524959564209 6.389707565307617 17.08211898803711 9.403790473937988 13.24295425415039 13.24295425415039 C 9.403790473937988 17.08211898803711 6.389707565307617 21.5524959564209 4.284448623657227 26.5298957824707 C 2.105048894882202 31.68256568908691 1.000001788139343 37.15663528442383 1.000001788139343 42.800048828125 C 1.000001788139343 48.44346237182617 2.105048894882202 53.91753005981445 4.284448623657227 59.07021331787109 C 6.389707565307617 64.04761505126953 9.403790473937988 68.51797485351562 13.24295425415039 72.35715484619141 C 17.08211898803711 76.19631958007812 21.5524959564209 79.21038818359375 26.5298957824707 81.31565093994141 C 31.68256568908691 83.49504852294922 37.15663528442383 84.60009765625 42.800048828125 84.60009765625 M 42.800048828125 85.60009765625 C 19.1622371673584 85.60009765625 1.769301434251247e-06 66.43787384033203 1.769301434251247e-06 42.800048828125 C 1.769301434251247e-06 19.1622371673584 19.1622371673584 1.769301434251247e-06 42.800048828125 1.769301434251247e-06 C 66.43787384033203 1.769301434251247e-06 85.60009765625 19.1622371673584 85.60009765625 42.800048828125 C 85.60009765625 66.43787384033203 66.43787384033203 85.60009765625 42.800048828125 85.60009765625 Z" stroke="none" fill="#999"/>
        </g>
      </g>
    </g>
    <g id="Group_7725" data-name="Group 7725" transform="translate(1153 7658)">
      <g id="Group_7702" data-name="Group 7702" clip-path="url(#clip-path)">
        <path id="Path_23074" data-name="Path 23074" d="M9.074.287h0a.98.98,0,0,0,0,1.386l2.6,2.6H.98a.98.98,0,0,0,0,1.96H11.638l-2.6,2.6a.98.98,0,0,0,0,1.386h0a.98.98,0,0,0,1.386,0l4.287-4.287a.98.98,0,0,0,0-1.386L10.459.287a.98.98,0,0,0-1.386,0" transform="translate(0 0.5)" fill="#d800e6"/>
      </g>
    </g>
  </g>
</svg>
