<svg xmlns="http://www.w3.org/2000/svg" xmlns:xlink="http://www.w3.org/1999/xlink" width="124.424" height="124.423" viewBox="0 0 124.424 124.423">
  <defs>
    <clipPath id="clip-path">
      <rect id="Rectangle_81" data-name="Rectangle 81" width="21.803" height="15.989" fill="#fff" stroke="#fff" stroke-width="1"/>
    </clipPath>
  </defs>
  <g id="Group_8123" data-name="Group 8123" transform="translate(-31 -9475)">
    <g id="Group_7770" data-name="Group 7770" transform="translate(155.424 9599.423) rotate(180)">
      <g id="Group_20" data-name="Group 20" transform="translate(0)">
        <g id="Path_13" data-name="Path 13" fill="none">
          <path d="M62.212,0h0a62.211,62.211,0,1,1,0,124.423h0A62.211,62.211,0,1,1,62.212,0Z" stroke="none"/>
          <path d="M 62.21193695068359 0.9999923706054688 C 53.94793701171875 0.9999923706054688 45.93167114257812 2.618278503417969 38.38578796386719 5.80987548828125 C 34.75895690917969 7.343879699707031 31.26078796386719 9.242607116699219 27.98845672607422 11.45332336425781 C 24.74697113037109 13.64321136474609 21.69876861572266 16.15818023681641 18.92855072021484 18.92835998535156 C 16.15835571289062 21.69854736328125 13.64335632324219 24.74671173095703 11.45345306396484 27.9881591796875 C 9.242706298828125 31.26045989990234 7.343955993652344 34.75859069824219 5.8099365234375 38.38539123535156 C 2.618301391601562 45.93117523193359 1 53.94735717773438 1 62.21127700805664 C 1 70.47517395019531 2.618301391601562 78.49136352539062 5.8099365234375 86.03715515136719 C 7.343955993652344 89.66395568847656 9.242706298828125 93.16209411621094 11.45345306396484 96.43437957763672 C 13.64335632324219 99.67582702636719 16.15835571289062 102.723991394043 18.92855072021484 105.4941787719727 C 21.69876861572266 108.2643585205078 24.74697113037109 110.7793273925781 27.98845672607422 112.9692077636719 C 31.26078796386719 115.1799240112305 34.75895690917969 117.0786590576172 38.38578796386719 118.612663269043 C 45.93167114257812 121.8042602539062 53.94793701171875 123.4225463867188 62.21193695068359 123.4225463867188 C 70.47593688964844 123.4225463867188 78.49221801757812 121.8042602539062 86.0380859375 118.612663269043 C 89.66493225097656 117.0786590576172 93.16310119628906 115.1799240112305 96.4354248046875 112.9692077636719 C 99.67691802978516 110.7793273925781 102.7251052856445 108.2643585205078 105.4953155517578 105.4941787719727 C 108.2655334472656 102.723991394043 110.780517578125 99.67582702636719 112.9704360961914 96.43437957763672 C 115.1811676025391 93.16209411621094 117.0799179077148 89.66395568847656 118.6139526367188 86.03715515136719 C 121.8055725097656 78.49136352539062 123.4238739013672 70.47518920898438 123.4238739013672 62.21127700805664 C 123.4238739013672 53.94735717773438 121.8055725097656 45.93117523193359 118.6139526367188 38.38539123535156 C 117.0799179077148 34.75859069824219 115.1811676025391 31.26045989990234 112.9704360961914 27.9881591796875 C 110.780517578125 24.74671173095703 108.2655334472656 21.69854736328125 105.4953155517578 18.92835998535156 C 102.7251052856445 16.15818023681641 99.67691802978516 13.64321136474609 96.4354248046875 11.45332336425781 C 93.16310119628906 9.242607116699219 89.66493225097656 7.343879699707031 86.0380859375 5.80987548828125 C 78.49221801757812 2.618278503417969 70.47593688964844 0.9999923706054688 62.21193695068359 0.9999923706054688 M 62.21193695068359 -7.62939453125e-06 C 96.57065582275391 -7.62939453125e-06 124.4238739013672 27.85292816162109 124.4238739013672 62.21127700805664 C 124.4238739013672 96.56961059570312 96.57065582275391 124.4225463867188 62.21193695068359 124.4225463867188 C 27.85323333740234 124.4225463867188 0 96.56961059570312 0 62.21127700805664 C 0 27.85292816162109 27.85323333740234 -7.62939453125e-06 62.21193695068359 -7.62939453125e-06 Z" stroke="none" fill="#fff"/>
        </g>
      </g>
    </g>
    <g id="Group_7772" data-name="Group 7772" transform="translate(81.874 9528.782)">
      <g id="Group_7702" data-name="Group 7702" transform="translate(0 0)" clip-path="url(#clip-path)">
        <path id="Path_23074" data-name="Path 23074" d="M8.614.417h0a1.424,1.424,0,0,1,0,2.014L4.839,6.207h15.54a1.424,1.424,0,0,1,0,2.849H4.887l3.775,3.775a1.424,1.424,0,0,1,0,2.014h0a1.424,1.424,0,0,1-2.014,0L.417,8.614a1.424,1.424,0,0,1,0-2.014L6.6.417a1.424,1.424,0,0,1,2.014,0" transform="translate(0 0.727)" fill="#fff" stroke="#fff" stroke-width="1"/>
      </g>
    </g>
  </g>
</svg>
