<svg xmlns="http://www.w3.org/2000/svg" width="16.193" height="15.357" viewBox="0 0 16.193 15.357">
  <path id="Path_23039" data-name="Path 23039" d="M664.714,13.417a6,6,0,0,1,1.46-5.966.454.454,0,0,1,.232-.125c.908-.177,1.5-.14,1.765.125a12.983,12.983,0,0,1,1.716,3.52c0,.61-.3,1.146-1.116,2a6.072,6.072,0,0,0,2.2,2.807,10.881,10.881,0,0,0,2.781,1.812,6.4,6.4,0,0,0,1.646-1.853.433.433,0,0,1,.057-.069,1.02,1.02,0,0,1,1.2-.086,9.148,9.148,0,0,1,.9.556c.517.343,1.23.812,2.064,1.281a.454.454,0,0,1,.218.479c0,.038-.005.075-.009.113a4.176,4.176,0,0,1-4.529,3.8,9.423,9.423,0,0,1-1.4-.113C669.5,21.031,666.06,16.938,664.714,13.417Z" transform="translate(-664.027 -6.846)" fill="none" stroke="#f36" stroke-miterlimit="10" stroke-width="0.75"/>
</svg>
