<svg xmlns="http://www.w3.org/2000/svg" width="104.6" height="15.789" viewBox="0 0 104.6 15.789">
  <g id="Group_47" data-name="Group 47" transform="translate(-1522 -56.205)">
    <path id="Path_14" data-name="Path 14" d="M8.3,0,5.735,5.2,0,6.031l4.15,4.045-.98,5.713,5.13-2.7,5.13,2.7-.979-5.713L16.6,6.031,10.865,5.2Z" transform="translate(1522 56.205)" fill="#d800e6"/>
    <path id="Path_15" data-name="Path 15" d="M8.3,0,5.735,5.2,0,6.031l4.15,4.045-.98,5.713,5.13-2.7,5.13,2.7-.979-5.713L16.6,6.031,10.865,5.2Z" transform="translate(1544 56.205)" fill="#d800e6"/>
    <path id="Path_16" data-name="Path 16" d="M8.3,0,5.735,5.2,0,6.031l4.15,4.045-.98,5.713,5.13-2.7,5.13,2.7-.979-5.713L16.6,6.031,10.865,5.2Z" transform="translate(1566 56.205)" fill="#d800e6"/>
    <path id="Path_17" data-name="Path 17" d="M8.3,0,5.735,5.2,0,6.031l4.15,4.045-.98,5.713,5.13-2.7,5.13,2.7-.979-5.713L16.6,6.031,10.865,5.2Z" transform="translate(1588 56.205)" fill="#d800e6"/>
    <path id="Path_18" data-name="Path 18" d="M8.3,0,5.735,5.2,0,6.031l4.15,4.045-.98,5.713,5.13-2.7,5.13,2.7-.979-5.713L16.6,6.031,10.865,5.2Z" transform="translate(1610 56.205)" fill="#d800e6"/>
  </g>
</svg>
