<svg xmlns="http://www.w3.org/2000/svg" width="41.213" height="27.475" viewBox="0 0 41.213 27.475">
  <g id="Group_7792" data-name="Group 7792" transform="translate(3968.428 -101.049)">
    <path id="Path_23145" data-name="Path 23145" d="M151.623,290.107h37.4a1.794,1.794,0,1,0,0-3.584h-37.4a1.794,1.794,0,1,0,0,3.584" transform="translate(-4118.178 -173.587)" fill="#f36"/>
    <path id="Path_23146" data-name="Path 23146" d="M189.481,373.913h-37.4a1.794,1.794,0,1,0,0,3.584h37.4a1.794,1.794,0,1,0,0-3.584" transform="translate(-4118.569 -248.972)" fill="#f36"/>
    <path id="Path_23147" data-name="Path 23147" d="M189.481,200h-37.4a1.794,1.794,0,1,0,0,3.584h37.4a1.794,1.794,0,1,0,0-3.584" transform="translate(-4118.569 -98.951)" fill="#f36"/>
  </g>
</svg>
