<svg xmlns="http://www.w3.org/2000/svg" xmlns:xlink="http://www.w3.org/1999/xlink" width="159" height="65" viewBox="0 0 159 65">
  <defs>
    <clipPath id="clip-path">
      <rect id="Rectangle_133" data-name="Rectangle 133" width="159" height="65" transform="translate(0.067)" fill="#fff" stroke="#707070" stroke-width="1"/>
    </clipPath>
    <clipPath id="clip-path-2">
      <rect id="Rectangle_85" data-name="Rectangle 85" width="157.027" height="74" fill="none"/>
    </clipPath>
  </defs>
  <g id="Mask_Group_10" data-name="Mask Group 10" transform="translate(-0.067)" clip-path="url(#clip-path)">
    <g id="Group_7751" data-name="Group 7751" transform="translate(-393.633 -24.921)">
      <g id="Group_7749" data-name="Group 7749" transform="translate(393.633 24.921)">
        <g id="Group_7748" data-name="Group 7748" transform="translate(0 0)" clip-path="url(#clip-path-2)">
          <g id="Group_8070" data-name="Group 8070" transform="translate(54.061 0.196)">
            <text id="Better" transform="translate(0 24)" font-size="27" font-family="SegoeUI, Segoe UI"><tspan x="0" y="0">Better</tspan></text>
            <text id="Place" transform="translate(0 59.285)" font-size="27" font-family="SegoeUI, Segoe UI"><tspan x="0" y="0">P</tspan><tspan y="0" letter-spacing="-0.029em">l</tspan><tspan y="0">ace</tspan></text>
          </g>
        </g>
      </g>
      <g id="Group_7750" data-name="Group 7750" transform="translate(394.406 27.009)">
        <path id="Path_23105" data-name="Path 23105" d="M30.487,29.247c5.426,1.265,9.451,3.786,11.761,9.187-2.65-.132-5-.124-7.325-.387-8.541-.964-9.855-5.922-15.486-17.514A49.113,49.113,0,0,0,.851.163,5.446,5.446,0,0,1,1.684,0c7.167.023,14.337-.052,21.5.122a21.889,21.889,0,0,1,11.994,3.42c5.319,3.593,6.9,8.88,6.036,14.887-.8,5.559-4.452,8.837-9.691,10.47-.245.077-.488.164-1.037.348" transform="translate(-0.851 0)" fill="#f36"/>
        <path id="Path_23106" data-name="Path 23106" d="M0,17.183c.9.5,1.7.883,2.434,1.365,5.8,3.795,10.778,8.355,13.487,14.93,4.935,11.976-2.25,24.348-15,26.717-.265.049-.536.063-.919.106Z" transform="translate(0 -2.387)" fill="#f36"/>
        <path id="Path_23107" data-name="Path 23107" d="M15.478,67.871c-.486-5.755,11.6-20.029,27.367-16.931.733-.021,1.462-.152,2.341-.247.036,4.149-.913,7.818-3.642,10.9-2.91,3.288-6.753,4.806-10.923,5.63-4.986.985-10.036.547-15.142.648" transform="translate(-2.866 -7.107)" fill="#f36"/>
      </g>
    </g>
  </g>
</svg>
